<?xml version="1.0" encoding="UTF-8" standalone="no"?>
<!DOCTYPE svg PUBLIC "-//W3C//DTD SVG 1.1//EN"
 "http://www.w3.org/Graphics/SVG/1.1/DTD/svg11.dtd">
<!-- Generated by graphviz version 2.40.1 (20161225.0304)
 -->
<!-- Title: dependencies Pages: 1 -->
<svg width="702pt" height="211pt"
 viewBox="0.00 0.00 702.00 211.00" xmlns="http://www.w3.org/2000/svg" xmlns:xlink="http://www.w3.org/1999/xlink">
<g id="graph0" class="graph" transform="scale(1 1) rotate(0) translate(4 207)">
<title>dependencies</title>
<polygon fill="#ffffff" stroke="transparent" points="-4,4 -4,-207 698,-207 698,4 -4,4"/>
<text text-anchor="start" x="326.0091" y="-42.4" font-family="sans-serif" font-weight="bold" font-size="14.00" fill="#000000">Legend</text>
<polygon fill="#ffffb3" stroke="transparent" points="113,-10 113,-30 133,-30 133,-10 113,-10"/>
<text text-anchor="start" x="136.629" y="-15.4" font-family="sans-serif" font-size="14.00" fill="#000000"> &#160;Declarations</text>
<polygon fill="#8dd3c7" stroke="transparent" points="226,-10 226,-30 246,-30 246,-10 226,-10"/>
<text text-anchor="start" x="249.7251" y="-15.4" font-family="sans-serif" font-size="14.00" fill="#000000"> &#160;Module</text>
<polygon fill="#80b1d3" stroke="transparent" points="312,-10 312,-30 332,-30 332,-10 312,-10"/>
<text text-anchor="start" x="335.7812" y="-15.4" font-family="sans-serif" font-size="14.00" fill="#000000"> &#160;Bootstrap</text>
<polygon fill="#fdb462" stroke="transparent" points="409,-10 409,-30 429,-30 429,-10 409,-10"/>
<text text-anchor="start" x="432.6732" y="-15.4" font-family="sans-serif" font-size="14.00" fill="#000000"> &#160;Providers</text>
<polygon fill="#fb8072" stroke="transparent" points="505,-10 505,-30 525,-30 525,-10 505,-10"/>
<text text-anchor="start" x="528.7258" y="-15.4" font-family="sans-serif" font-size="14.00" fill="#000000"> &#160;Exports</text>
<g id="clust1" class="cluster">
<title>cluster_OrdersModule</title>
<polygon fill="none" stroke="#000000" stroke-dasharray="1,5" points="8,-70 8,-195 686,-195 686,-70 8,-70"/>
</g>
<g id="clust2" class="cluster">
<title>cluster_OrdersModule_declarations</title>
<polygon fill="none" stroke="#000000" points="182,-78 182,-130 678,-130 678,-78 182,-78"/>
</g>
<g id="clust6" class="cluster">
<title>cluster_OrdersModule_imports</title>
<polygon fill="none" stroke="#000000" points="16,-78 16,-130 174,-130 174,-78 16,-78"/>
</g>
<!-- DetailsOrderComponent -->
<g id="node1" class="node">
<title>DetailsOrderComponent</title>
<polygon fill="#ffffb3" stroke="#000000" points="669.6275,-122 516.3725,-122 516.3725,-86 669.6275,-86 669.6275,-122"/>
<text text-anchor="middle" x="593" y="-99.8" font-family="Times,serif" font-size="14.00" fill="#000000">DetailsOrderComponent</text>
</g>
<!-- OrdersModule -->
<g id="node4" class="node">
<title>OrdersModule</title>
<polygon fill="#8dd3c7" stroke="#000000" points="394.6375,-187 391.6375,-191 370.6375,-191 367.6375,-187 297.3625,-187 297.3625,-151 394.6375,-151 394.6375,-187"/>
<text text-anchor="middle" x="346" y="-164.8" font-family="Times,serif" font-size="14.00" fill="#000000">OrdersModule</text>
</g>
<!-- DetailsOrderComponent&#45;&gt;OrdersModule -->
<g id="edge1" class="edge">
<title>DetailsOrderComponent&#45;&gt;OrdersModule</title>
<path fill="none" stroke="#000000" d="M593,-122.1061C593,-141.3391 593,-169 593,-169 593,-169 404.7993,-169 404.7993,-169"/>
<polygon fill="#000000" stroke="#000000" points="404.7993,-165.5001 394.7993,-169 404.7992,-172.5001 404.7993,-165.5001"/>
</g>
<!-- NewOrderComponent -->
<g id="node2" class="node">
<title>NewOrderComponent</title>
<polygon fill="#ffffb3" stroke="#000000" points="498.4032,-122 357.5968,-122 357.5968,-86 498.4032,-86 498.4032,-122"/>
<text text-anchor="middle" x="428" y="-99.8" font-family="Times,serif" font-size="14.00" fill="#000000">NewOrderComponent</text>
</g>
<!-- NewOrderComponent&#45;&gt;OrdersModule -->
<g id="edge2" class="edge">
<title>NewOrderComponent&#45;&gt;OrdersModule</title>
<path fill="none" stroke="#000000" d="M376.3085,-122.1061C376.3085,-122.1061 376.3085,-140.991 376.3085,-140.991"/>
<polygon fill="#000000" stroke="#000000" points="372.8086,-140.9909 376.3085,-150.991 379.8086,-140.991 372.8086,-140.9909"/>
</g>
<!-- ViewOrdersComponent -->
<g id="node3" class="node">
<title>ViewOrdersComponent</title>
<polygon fill="#ffffb3" stroke="#000000" points="339.738,-122 190.262,-122 190.262,-86 339.738,-86 339.738,-122"/>
<text text-anchor="middle" x="265" y="-99.8" font-family="Times,serif" font-size="14.00" fill="#000000">ViewOrdersComponent</text>
</g>
<!-- ViewOrdersComponent&#45;&gt;OrdersModule -->
<g id="edge3" class="edge">
<title>ViewOrdersComponent&#45;&gt;OrdersModule</title>
<path fill="none" stroke="#000000" d="M318.5253,-122.1061C318.5253,-122.1061 318.5253,-140.991 318.5253,-140.991"/>
<polygon fill="#000000" stroke="#000000" points="315.0253,-140.9909 318.5253,-150.991 322.0253,-140.991 315.0253,-140.9909"/>
</g>
<!-- OrdersRoutingModule -->
<g id="node5" class="node">
<title>OrdersRoutingModule</title>
<polygon fill="#8dd3c7" stroke="#000000" points="166.2548,-122 163.2548,-126 142.2548,-126 139.2548,-122 23.7452,-122 23.7452,-86 166.2548,-86 166.2548,-122"/>
<text text-anchor="middle" x="95" y="-99.8" font-family="Times,serif" font-size="14.00" fill="#000000">OrdersRoutingModule</text>
</g>
<!-- OrdersRoutingModule&#45;&gt;OrdersModule -->
<g id="edge4" class="edge">
<title>OrdersRoutingModule&#45;&gt;OrdersModule</title>
<path fill="none" stroke="#000000" d="M95,-122.1061C95,-141.3391 95,-169 95,-169 95,-169 287.3071,-169 287.3071,-169"/>
<polygon fill="#000000" stroke="#000000" points="287.3071,-172.5001 297.3071,-169 287.307,-165.5001 287.3071,-172.5001"/>
</g>
</g>
</svg>
