<?xml version="1.0" encoding="UTF-8" standalone="no"?>
<!DOCTYPE svg PUBLIC "-//W3C//DTD SVG 1.1//EN"
 "http://www.w3.org/Graphics/SVG/1.1/DTD/svg11.dtd">
<!-- Generated by graphviz version 2.40.1 (20161225.0304)
 -->
<!-- Title: dependencies Pages: 1 -->
<svg width="827pt" height="211pt"
 viewBox="0.00 0.00 827.00 211.00" xmlns="http://www.w3.org/2000/svg" xmlns:xlink="http://www.w3.org/1999/xlink">
<g id="graph0" class="graph" transform="scale(1 1) rotate(0) translate(4 207)">
<title>dependencies</title>
<polygon fill="#ffffff" stroke="transparent" points="-4,4 -4,-207 823,-207 823,4 -4,4"/>
<text text-anchor="start" x="388.5091" y="-42.4" font-family="sans-serif" font-weight="bold" font-size="14.00" fill="#000000">Legend</text>
<polygon fill="#ffffb3" stroke="transparent" points="175.5,-10 175.5,-30 195.5,-30 195.5,-10 175.5,-10"/>
<text text-anchor="start" x="199.129" y="-15.4" font-family="sans-serif" font-size="14.00" fill="#000000"> &#160;Declarations</text>
<polygon fill="#8dd3c7" stroke="transparent" points="288.5,-10 288.5,-30 308.5,-30 308.5,-10 288.5,-10"/>
<text text-anchor="start" x="312.2251" y="-15.4" font-family="sans-serif" font-size="14.00" fill="#000000"> &#160;Module</text>
<polygon fill="#80b1d3" stroke="transparent" points="374.5,-10 374.5,-30 394.5,-30 394.5,-10 374.5,-10"/>
<text text-anchor="start" x="398.2812" y="-15.4" font-family="sans-serif" font-size="14.00" fill="#000000"> &#160;Bootstrap</text>
<polygon fill="#fdb462" stroke="transparent" points="471.5,-10 471.5,-30 491.5,-30 491.5,-10 471.5,-10"/>
<text text-anchor="start" x="495.1732" y="-15.4" font-family="sans-serif" font-size="14.00" fill="#000000"> &#160;Providers</text>
<polygon fill="#fb8072" stroke="transparent" points="567.5,-10 567.5,-30 587.5,-30 587.5,-10 567.5,-10"/>
<text text-anchor="start" x="591.2258" y="-15.4" font-family="sans-serif" font-size="14.00" fill="#000000"> &#160;Exports</text>
<g id="clust1" class="cluster">
<title>cluster_UsersModule</title>
<polygon fill="none" stroke="#000000" stroke-dasharray="1,5" points="8,-70 8,-195 811,-195 811,-70 8,-70"/>
</g>
<g id="clust2" class="cluster">
<title>cluster_UsersModule_declarations</title>
<polygon fill="none" stroke="#000000" points="176,-78 176,-130 803,-130 803,-78 176,-78"/>
</g>
<g id="clust7" class="cluster">
<title>cluster_UsersModule_imports</title>
<polygon fill="none" stroke="#000000" points="16,-78 16,-130 168,-130 168,-78 16,-78"/>
</g>
<!-- DetailsUserComponent -->
<g id="node1" class="node">
<title>DetailsUserComponent</title>
<polygon fill="#ffffb3" stroke="#000000" points="794.9116,-122 647.0884,-122 647.0884,-86 794.9116,-86 794.9116,-122"/>
<text text-anchor="middle" x="721" y="-99.8" font-family="Times,serif" font-size="14.00" fill="#000000">DetailsUserComponent</text>
</g>
<!-- UsersModule -->
<g id="node5" class="node">
<title>UsersModule</title>
<polygon fill="#8dd3c7" stroke="#000000" points="458.9218,-187 455.9218,-191 434.9218,-191 431.9218,-187 367.0782,-187 367.0782,-151 458.9218,-151 458.9218,-187"/>
<text text-anchor="middle" x="413" y="-164.8" font-family="Times,serif" font-size="14.00" fill="#000000">UsersModule</text>
</g>
<!-- DetailsUserComponent&#45;&gt;UsersModule -->
<g id="edge1" class="edge">
<title>DetailsUserComponent&#45;&gt;UsersModule</title>
<path fill="none" stroke="#000000" d="M721,-122.2843C721,-143.3211 721,-175 721,-175 721,-175 468.7781,-175 468.7781,-175"/>
<polygon fill="#000000" stroke="#000000" points="468.7782,-171.5001 458.7781,-175 468.7781,-178.5001 468.7782,-171.5001"/>
</g>
<!-- EditUserComponent -->
<g id="node2" class="node">
<title>EditUserComponent</title>
<polygon fill="#ffffb3" stroke="#000000" points="629.5926,-122 498.4074,-122 498.4074,-86 629.5926,-86 629.5926,-122"/>
<text text-anchor="middle" x="564" y="-99.8" font-family="Times,serif" font-size="14.00" fill="#000000">EditUserComponent</text>
</g>
<!-- EditUserComponent&#45;&gt;UsersModule -->
<g id="edge2" class="edge">
<title>EditUserComponent&#45;&gt;UsersModule</title>
<path fill="none" stroke="#000000" d="M564,-122.0225C564,-139.3734 564,-163 564,-163 564,-163 468.7148,-163 468.7148,-163"/>
<polygon fill="#000000" stroke="#000000" points="468.7148,-159.5001 458.7148,-163 468.7147,-166.5001 468.7148,-159.5001"/>
</g>
<!-- NewUserComponent -->
<g id="node3" class="node">
<title>NewUserComponent</title>
<polygon fill="#ffffb3" stroke="#000000" points="480.1867,-122 345.8133,-122 345.8133,-86 480.1867,-86 480.1867,-122"/>
<text text-anchor="middle" x="413" y="-99.8" font-family="Times,serif" font-size="14.00" fill="#000000">NewUserComponent</text>
</g>
<!-- NewUserComponent&#45;&gt;UsersModule -->
<g id="edge3" class="edge">
<title>NewUserComponent&#45;&gt;UsersModule</title>
<path fill="none" stroke="#000000" d="M413,-122.1061C413,-122.1061 413,-140.991 413,-140.991"/>
<polygon fill="#000000" stroke="#000000" points="409.5001,-140.9909 413,-150.991 416.5001,-140.991 409.5001,-140.9909"/>
</g>
<!-- ViewUsersComponent -->
<g id="node4" class="node">
<title>ViewUsersComponent</title>
<polygon fill="#ffffb3" stroke="#000000" points="327.5226,-122 184.4774,-122 184.4774,-86 327.5226,-86 327.5226,-122"/>
<text text-anchor="middle" x="256" y="-99.8" font-family="Times,serif" font-size="14.00" fill="#000000">ViewUsersComponent</text>
</g>
<!-- ViewUsersComponent&#45;&gt;UsersModule -->
<g id="edge4" class="edge">
<title>ViewUsersComponent&#45;&gt;UsersModule</title>
<path fill="none" stroke="#000000" d="M256,-122.0225C256,-139.3734 256,-163 256,-163 256,-163 357.1671,-163 357.1671,-163"/>
<polygon fill="#000000" stroke="#000000" points="357.1671,-166.5001 367.1671,-163 357.167,-159.5001 357.1671,-166.5001"/>
</g>
<!-- UsersRoutingModule -->
<g id="node6" class="node">
<title>UsersRoutingModule</title>
<polygon fill="#8dd3c7" stroke="#000000" points="160.0394,-122 157.0394,-126 136.0394,-126 133.0394,-122 23.9606,-122 23.9606,-86 160.0394,-86 160.0394,-122"/>
<text text-anchor="middle" x="92" y="-99.8" font-family="Times,serif" font-size="14.00" fill="#000000">UsersRoutingModule</text>
</g>
<!-- UsersRoutingModule&#45;&gt;UsersModule -->
<g id="edge5" class="edge">
<title>UsersRoutingModule&#45;&gt;UsersModule</title>
<path fill="none" stroke="#000000" d="M92,-122.2843C92,-143.3211 92,-175 92,-175 92,-175 357.0085,-175 357.0085,-175"/>
<polygon fill="#000000" stroke="#000000" points="357.0086,-178.5001 367.0085,-175 357.0085,-171.5001 357.0086,-178.5001"/>
</g>
</g>
</svg>
