<?xml version="1.0" encoding="UTF-8" standalone="no"?>
<!DOCTYPE svg PUBLIC "-//W3C//DTD SVG 1.1//EN"
 "http://www.w3.org/Graphics/SVG/1.1/DTD/svg11.dtd">
<!-- Generated by graphviz version 2.40.1 (20161225.0304)
 -->
<!-- Title: dependencies Pages: 1 -->
<svg width="504pt" height="211pt"
 viewBox="0.00 0.00 504.00 211.00" xmlns="http://www.w3.org/2000/svg" xmlns:xlink="http://www.w3.org/1999/xlink">
<g id="graph0" class="graph" transform="scale(1 1) rotate(0) translate(4 207)">
<title>dependencies</title>
<polygon fill="#ffffff" stroke="transparent" points="-4,4 -4,-207 500,-207 500,4 -4,4"/>
<text text-anchor="start" x="227.0091" y="-42.4" font-family="sans-serif" font-weight="bold" font-size="14.00" fill="#000000">Legend</text>
<polygon fill="#ffffb3" stroke="transparent" points="14,-10 14,-30 34,-30 34,-10 14,-10"/>
<text text-anchor="start" x="37.629" y="-15.4" font-family="sans-serif" font-size="14.00" fill="#000000"> &#160;Declarations</text>
<polygon fill="#8dd3c7" stroke="transparent" points="127,-10 127,-30 147,-30 147,-10 127,-10"/>
<text text-anchor="start" x="150.7251" y="-15.4" font-family="sans-serif" font-size="14.00" fill="#000000"> &#160;Module</text>
<polygon fill="#80b1d3" stroke="transparent" points="213,-10 213,-30 233,-30 233,-10 213,-10"/>
<text text-anchor="start" x="236.7812" y="-15.4" font-family="sans-serif" font-size="14.00" fill="#000000"> &#160;Bootstrap</text>
<polygon fill="#fdb462" stroke="transparent" points="310,-10 310,-30 330,-30 330,-10 310,-10"/>
<text text-anchor="start" x="333.6732" y="-15.4" font-family="sans-serif" font-size="14.00" fill="#000000"> &#160;Providers</text>
<polygon fill="#fb8072" stroke="transparent" points="406,-10 406,-30 426,-30 426,-10 406,-10"/>
<text text-anchor="start" x="429.7258" y="-15.4" font-family="sans-serif" font-size="14.00" fill="#000000"> &#160;Exports</text>
<g id="clust1" class="cluster">
<title>cluster_LogModule</title>
<polygon fill="none" stroke="#000000" stroke-dasharray="1,5" points="89,-70 89,-195 407,-195 407,-70 89,-70"/>
</g>
<g id="clust2" class="cluster">
<title>cluster_LogModule_declarations</title>
<polygon fill="none" stroke="#000000" points="249,-78 249,-130 399,-130 399,-78 249,-78"/>
</g>
<g id="clust4" class="cluster">
<title>cluster_LogModule_imports</title>
<polygon fill="none" stroke="#000000" points="97,-78 97,-130 241,-130 241,-78 97,-78"/>
</g>
<!-- ViewLogComponent -->
<g id="node1" class="node">
<title>ViewLogComponent</title>
<polygon fill="#ffffb3" stroke="#000000" points="391.2036,-122 256.7964,-122 256.7964,-86 391.2036,-86 391.2036,-122"/>
<text text-anchor="middle" x="324" y="-99.8" font-family="Times,serif" font-size="14.00" fill="#000000">ViewLogComponent</text>
</g>
<!-- LogModule -->
<g id="node2" class="node">
<title>LogModule</title>
<polygon fill="#8dd3c7" stroke="#000000" points="287.1025,-187 284.1025,-191 263.1025,-191 260.1025,-187 204.8975,-187 204.8975,-151 287.1025,-151 287.1025,-187"/>
<text text-anchor="middle" x="246" y="-164.8" font-family="Times,serif" font-size="14.00" fill="#000000">LogModule</text>
</g>
<!-- ViewLogComponent&#45;&gt;LogModule -->
<g id="edge1" class="edge">
<title>ViewLogComponent&#45;&gt;LogModule</title>
<path fill="none" stroke="#000000" d="M271.9747,-122.1061C271.9747,-122.1061 271.9747,-140.991 271.9747,-140.991"/>
<polygon fill="#000000" stroke="#000000" points="268.4748,-140.9909 271.9747,-150.991 275.4748,-140.991 268.4748,-140.9909"/>
</g>
<!-- LogRoutingModule -->
<g id="node3" class="node">
<title>LogRoutingModule</title>
<polygon fill="#8dd3c7" stroke="#000000" points="232.7204,-122 229.7204,-126 208.7204,-126 205.7204,-122 105.2796,-122 105.2796,-86 232.7204,-86 232.7204,-122"/>
<text text-anchor="middle" x="169" y="-99.8" font-family="Times,serif" font-size="14.00" fill="#000000">LogRoutingModule</text>
</g>
<!-- LogRoutingModule&#45;&gt;LogModule -->
<g id="edge2" class="edge">
<title>LogRoutingModule&#45;&gt;LogModule</title>
<path fill="none" stroke="#000000" d="M218.7795,-122.1061C218.7795,-122.1061 218.7795,-140.991 218.7795,-140.991"/>
<polygon fill="#000000" stroke="#000000" points="215.2795,-140.9909 218.7795,-150.991 222.2795,-140.991 215.2795,-140.9909"/>
</g>
</g>
</svg>
