<?xml version="1.0" encoding="UTF-8" standalone="no"?>
<!DOCTYPE svg PUBLIC "-//W3C//DTD SVG 1.1//EN"
 "http://www.w3.org/Graphics/SVG/1.1/DTD/svg11.dtd">
<!-- Generated by graphviz version 2.40.1 (20161225.0304)
 -->
<!-- Title: dependencies Pages: 1 -->
<svg width="886pt" height="211pt"
 viewBox="0.00 0.00 886.00 211.00" xmlns="http://www.w3.org/2000/svg" xmlns:xlink="http://www.w3.org/1999/xlink">
<g id="graph0" class="graph" transform="scale(1 1) rotate(0) translate(4 207)">
<title>dependencies</title>
<polygon fill="#ffffff" stroke="transparent" points="-4,4 -4,-207 882,-207 882,4 -4,4"/>
<text text-anchor="start" x="418.0091" y="-42.4" font-family="sans-serif" font-weight="bold" font-size="14.00" fill="#000000">Legend</text>
<polygon fill="#ffffb3" stroke="transparent" points="205,-10 205,-30 225,-30 225,-10 205,-10"/>
<text text-anchor="start" x="228.629" y="-15.4" font-family="sans-serif" font-size="14.00" fill="#000000"> &#160;Declarations</text>
<polygon fill="#8dd3c7" stroke="transparent" points="318,-10 318,-30 338,-30 338,-10 318,-10"/>
<text text-anchor="start" x="341.7251" y="-15.4" font-family="sans-serif" font-size="14.00" fill="#000000"> &#160;Module</text>
<polygon fill="#80b1d3" stroke="transparent" points="404,-10 404,-30 424,-30 424,-10 404,-10"/>
<text text-anchor="start" x="427.7812" y="-15.4" font-family="sans-serif" font-size="14.00" fill="#000000"> &#160;Bootstrap</text>
<polygon fill="#fdb462" stroke="transparent" points="501,-10 501,-30 521,-30 521,-10 501,-10"/>
<text text-anchor="start" x="524.6732" y="-15.4" font-family="sans-serif" font-size="14.00" fill="#000000"> &#160;Providers</text>
<polygon fill="#fb8072" stroke="transparent" points="597,-10 597,-30 617,-30 617,-10 597,-10"/>
<text text-anchor="start" x="620.7258" y="-15.4" font-family="sans-serif" font-size="14.00" fill="#000000"> &#160;Exports</text>
<g id="clust1" class="cluster">
<title>cluster_ItemTemplatesModule</title>
<polygon fill="none" stroke="#000000" stroke-dasharray="1,5" points="8,-70 8,-195 870,-195 870,-70 8,-70"/>
</g>
<g id="clust2" class="cluster">
<title>cluster_ItemTemplatesModule_declarations</title>
<polygon fill="none" stroke="#000000" points="228,-78 228,-130 862,-130 862,-78 228,-78"/>
</g>
<g id="clust6" class="cluster">
<title>cluster_ItemTemplatesModule_imports</title>
<polygon fill="none" stroke="#000000" points="16,-78 16,-130 220,-130 220,-78 16,-78"/>
</g>
<!-- DetailsItemTemplateComponent -->
<g id="node1" class="node">
<title>DetailsItemTemplateComponent</title>
<polygon fill="#ffffb3" stroke="#000000" points="853.5098,-122 654.4902,-122 654.4902,-86 853.5098,-86 853.5098,-122"/>
<text text-anchor="middle" x="754" y="-99.8" font-family="Times,serif" font-size="14.00" fill="#000000">DetailsItemTemplateComponent</text>
</g>
<!-- ItemTemplatesModule -->
<g id="node4" class="node">
<title>ItemTemplatesModule</title>
<polygon fill="#8dd3c7" stroke="#000000" points="509.5198,-187 506.5198,-191 485.5198,-191 482.5198,-187 366.4802,-187 366.4802,-151 509.5198,-151 509.5198,-187"/>
<text text-anchor="middle" x="438" y="-164.8" font-family="Times,serif" font-size="14.00" fill="#000000">ItemTemplatesModule</text>
</g>
<!-- DetailsItemTemplateComponent&#45;&gt;ItemTemplatesModule -->
<g id="edge1" class="edge">
<title>DetailsItemTemplateComponent&#45;&gt;ItemTemplatesModule</title>
<path fill="none" stroke="#000000" d="M754,-122.1061C754,-141.3391 754,-169 754,-169 754,-169 519.7053,-169 519.7053,-169"/>
<polygon fill="#000000" stroke="#000000" points="519.7053,-165.5001 509.7053,-169 519.7053,-172.5001 519.7053,-165.5001"/>
</g>
<!-- NewItemTemplateComponent -->
<g id="node2" class="node">
<title>NewItemTemplateComponent</title>
<polygon fill="#ffffb3" stroke="#000000" points="636.285,-122 449.715,-122 449.715,-86 636.285,-86 636.285,-122"/>
<text text-anchor="middle" x="543" y="-99.8" font-family="Times,serif" font-size="14.00" fill="#000000">NewItemTemplateComponent</text>
</g>
<!-- NewItemTemplateComponent&#45;&gt;ItemTemplatesModule -->
<g id="edge2" class="edge">
<title>NewItemTemplateComponent&#45;&gt;ItemTemplatesModule</title>
<path fill="none" stroke="#000000" d="M479.8086,-122.1061C479.8086,-122.1061 479.8086,-140.991 479.8086,-140.991"/>
<polygon fill="#000000" stroke="#000000" points="476.3086,-140.9909 479.8086,-150.991 483.3086,-140.991 476.3086,-140.9909"/>
</g>
<!-- ViewItemTemplatesComponent -->
<g id="node3" class="node">
<title>ViewItemTemplatesComponent</title>
<polygon fill="#ffffb3" stroke="#000000" points="431.6204,-122 236.3796,-122 236.3796,-86 431.6204,-86 431.6204,-122"/>
<text text-anchor="middle" x="334" y="-99.8" font-family="Times,serif" font-size="14.00" fill="#000000">ViewItemTemplatesComponent</text>
</g>
<!-- ViewItemTemplatesComponent&#45;&gt;ItemTemplatesModule -->
<g id="edge3" class="edge">
<title>ViewItemTemplatesComponent&#45;&gt;ItemTemplatesModule</title>
<path fill="none" stroke="#000000" d="M399.0253,-122.1061C399.0253,-122.1061 399.0253,-140.991 399.0253,-140.991"/>
<polygon fill="#000000" stroke="#000000" points="395.5253,-140.9909 399.0253,-150.991 402.5253,-140.991 395.5253,-140.9909"/>
</g>
<!-- ItemTemplatesRoutingModule -->
<g id="node5" class="node">
<title>ItemTemplatesRoutingModule</title>
<polygon fill="#8dd3c7" stroke="#000000" points="212.1371,-122 209.1371,-126 188.1371,-126 185.1371,-122 23.8629,-122 23.8629,-86 212.1371,-86 212.1371,-122"/>
<text text-anchor="middle" x="118" y="-99.8" font-family="Times,serif" font-size="14.00" fill="#000000">ItemTemplatesRoutingModule</text>
</g>
<!-- ItemTemplatesRoutingModule&#45;&gt;ItemTemplatesModule -->
<g id="edge4" class="edge">
<title>ItemTemplatesRoutingModule&#45;&gt;ItemTemplatesModule</title>
<path fill="none" stroke="#000000" d="M118,-122.1061C118,-141.3391 118,-169 118,-169 118,-169 356.1858,-169 356.1858,-169"/>
<polygon fill="#000000" stroke="#000000" points="356.1858,-172.5001 366.1858,-169 356.1857,-165.5001 356.1858,-172.5001"/>
</g>
</g>
</svg>
