<?xml version="1.0" encoding="UTF-8" standalone="no"?>
<!DOCTYPE svg PUBLIC "-//W3C//DTD SVG 1.1//EN"
 "http://www.w3.org/Graphics/SVG/1.1/DTD/svg11.dtd">
<!-- Generated by graphviz version 2.40.1 (20161225.0304)
 -->
<!-- Title: dependencies Pages: 1 -->
<svg width="678pt" height="211pt"
 viewBox="0.00 0.00 678.00 211.00" xmlns="http://www.w3.org/2000/svg" xmlns:xlink="http://www.w3.org/1999/xlink">
<g id="graph0" class="graph" transform="scale(1 1) rotate(0) translate(4 207)">
<title>dependencies</title>
<polygon fill="#ffffff" stroke="transparent" points="-4,4 -4,-207 674,-207 674,4 -4,4"/>
<text text-anchor="start" x="314.0091" y="-42.4" font-family="sans-serif" font-weight="bold" font-size="14.00" fill="#000000">Legend</text>
<polygon fill="#ffffb3" stroke="transparent" points="101,-10 101,-30 121,-30 121,-10 101,-10"/>
<text text-anchor="start" x="124.629" y="-15.4" font-family="sans-serif" font-size="14.00" fill="#000000"> &#160;Declarations</text>
<polygon fill="#8dd3c7" stroke="transparent" points="214,-10 214,-30 234,-30 234,-10 214,-10"/>
<text text-anchor="start" x="237.7251" y="-15.4" font-family="sans-serif" font-size="14.00" fill="#000000"> &#160;Module</text>
<polygon fill="#80b1d3" stroke="transparent" points="300,-10 300,-30 320,-30 320,-10 300,-10"/>
<text text-anchor="start" x="323.7812" y="-15.4" font-family="sans-serif" font-size="14.00" fill="#000000"> &#160;Bootstrap</text>
<polygon fill="#fdb462" stroke="transparent" points="397,-10 397,-30 417,-30 417,-10 397,-10"/>
<text text-anchor="start" x="420.6732" y="-15.4" font-family="sans-serif" font-size="14.00" fill="#000000"> &#160;Providers</text>
<polygon fill="#fb8072" stroke="transparent" points="493,-10 493,-30 513,-30 513,-10 493,-10"/>
<text text-anchor="start" x="516.7258" y="-15.4" font-family="sans-serif" font-size="14.00" fill="#000000"> &#160;Exports</text>
<g id="clust1" class="cluster">
<title>cluster_ItemsModule</title>
<polygon fill="none" stroke="#000000" stroke-dasharray="1,5" points="8,-70 8,-195 662,-195 662,-70 8,-70"/>
</g>
<g id="clust2" class="cluster">
<title>cluster_ItemsModule_declarations</title>
<polygon fill="none" stroke="#000000" points="176,-78 176,-130 654,-130 654,-78 176,-78"/>
</g>
<g id="clust6" class="cluster">
<title>cluster_ItemsModule_imports</title>
<polygon fill="none" stroke="#000000" points="16,-78 16,-130 168,-130 168,-78 16,-78"/>
</g>
<!-- AddItemsComponent -->
<g id="node1" class="node">
<title>AddItemsComponent</title>
<polygon fill="#ffffb3" stroke="#000000" points="646.0408,-122 509.9592,-122 509.9592,-86 646.0408,-86 646.0408,-122"/>
<text text-anchor="middle" x="578" y="-99.8" font-family="Times,serif" font-size="14.00" fill="#000000">AddItemsComponent</text>
</g>
<!-- ItemsModule -->
<g id="node4" class="node">
<title>ItemsModule</title>
<polygon fill="#8dd3c7" stroke="#000000" points="381.1515,-187 378.1515,-191 357.1515,-191 354.1515,-187 290.8485,-187 290.8485,-151 381.1515,-151 381.1515,-187"/>
<text text-anchor="middle" x="336" y="-164.8" font-family="Times,serif" font-size="14.00" fill="#000000">ItemsModule</text>
</g>
<!-- AddItemsComponent&#45;&gt;ItemsModule -->
<g id="edge1" class="edge">
<title>AddItemsComponent&#45;&gt;ItemsModule</title>
<path fill="none" stroke="#000000" d="M578,-122.1061C578,-141.3391 578,-169 578,-169 578,-169 391.2345,-169 391.2345,-169"/>
<polygon fill="#000000" stroke="#000000" points="391.2345,-165.5001 381.2345,-169 391.2344,-172.5001 391.2345,-165.5001"/>
</g>
<!-- DetailsItemComponent -->
<g id="node2" class="node">
<title>DetailsItemComponent</title>
<polygon fill="#ffffb3" stroke="#000000" points="491.1414,-122 344.8586,-122 344.8586,-86 491.1414,-86 491.1414,-122"/>
<text text-anchor="middle" x="418" y="-99.8" font-family="Times,serif" font-size="14.00" fill="#000000">DetailsItemComponent</text>
</g>
<!-- DetailsItemComponent&#45;&gt;ItemsModule -->
<g id="edge2" class="edge">
<title>DetailsItemComponent&#45;&gt;ItemsModule</title>
<path fill="none" stroke="#000000" d="M363.0025,-122.1061C363.0025,-122.1061 363.0025,-140.991 363.0025,-140.991"/>
<polygon fill="#000000" stroke="#000000" points="359.5025,-140.9909 363.0025,-150.991 366.5025,-140.991 359.5025,-140.9909"/>
</g>
<!-- ViewItemsComponent -->
<g id="node3" class="node">
<title>ViewItemsComponent</title>
<polygon fill="#ffffb3" stroke="#000000" points="326.252,-122 183.748,-122 183.748,-86 326.252,-86 326.252,-122"/>
<text text-anchor="middle" x="255" y="-99.8" font-family="Times,serif" font-size="14.00" fill="#000000">ViewItemsComponent</text>
</g>
<!-- ViewItemsComponent&#45;&gt;ItemsModule -->
<g id="edge3" class="edge">
<title>ViewItemsComponent&#45;&gt;ItemsModule</title>
<path fill="none" stroke="#000000" d="M308.5253,-122.1061C308.5253,-122.1061 308.5253,-140.991 308.5253,-140.991"/>
<polygon fill="#000000" stroke="#000000" points="305.0253,-140.9909 308.5253,-150.991 312.0253,-140.991 305.0253,-140.9909"/>
</g>
<!-- ItemsRoutingModule -->
<g id="node5" class="node">
<title>ItemsRoutingModule</title>
<polygon fill="#8dd3c7" stroke="#000000" points="159.7688,-122 156.7688,-126 135.7688,-126 132.7688,-122 24.2312,-122 24.2312,-86 159.7688,-86 159.7688,-122"/>
<text text-anchor="middle" x="92" y="-99.8" font-family="Times,serif" font-size="14.00" fill="#000000">ItemsRoutingModule</text>
</g>
<!-- ItemsRoutingModule&#45;&gt;ItemsModule -->
<g id="edge4" class="edge">
<title>ItemsRoutingModule&#45;&gt;ItemsModule</title>
<path fill="none" stroke="#000000" d="M92,-122.1061C92,-141.3391 92,-169 92,-169 92,-169 280.6773,-169 280.6773,-169"/>
<polygon fill="#000000" stroke="#000000" points="280.6773,-172.5001 290.6773,-169 280.6773,-165.5001 280.6773,-172.5001"/>
</g>
</g>
</svg>
