<?xml version="1.0" encoding="UTF-8" standalone="no"?>
<!DOCTYPE svg PUBLIC "-//W3C//DTD SVG 1.1//EN"
 "http://www.w3.org/Graphics/SVG/1.1/DTD/svg11.dtd">
<!-- Generated by graphviz version 2.40.1 (20161225.0304)
 -->
<!-- Title: dependencies Pages: 1 -->
<svg width="2482pt" height="284pt"
 viewBox="0.00 0.00 2482.00 284.00" xmlns="http://www.w3.org/2000/svg" xmlns:xlink="http://www.w3.org/1999/xlink">
<g id="graph0" class="graph" transform="scale(1 1) rotate(0) translate(4 280)">
<title>dependencies</title>
<polygon fill="#ffffff" stroke="transparent" points="-4,4 -4,-280 2478,-280 2478,4 -4,4"/>
<text text-anchor="start" x="1216.0091" y="-42.4" font-family="sans-serif" font-weight="bold" font-size="14.00" fill="#000000">Legend</text>
<polygon fill="#ffffb3" stroke="transparent" points="1003,-10 1003,-30 1023,-30 1023,-10 1003,-10"/>
<text text-anchor="start" x="1026.629" y="-15.4" font-family="sans-serif" font-size="14.00" fill="#000000"> &#160;Declarations</text>
<polygon fill="#8dd3c7" stroke="transparent" points="1116,-10 1116,-30 1136,-30 1136,-10 1116,-10"/>
<text text-anchor="start" x="1139.7251" y="-15.4" font-family="sans-serif" font-size="14.00" fill="#000000"> &#160;Module</text>
<polygon fill="#80b1d3" stroke="transparent" points="1202,-10 1202,-30 1222,-30 1222,-10 1202,-10"/>
<text text-anchor="start" x="1225.7812" y="-15.4" font-family="sans-serif" font-size="14.00" fill="#000000"> &#160;Bootstrap</text>
<polygon fill="#fdb462" stroke="transparent" points="1299,-10 1299,-30 1319,-30 1319,-10 1299,-10"/>
<text text-anchor="start" x="1322.6732" y="-15.4" font-family="sans-serif" font-size="14.00" fill="#000000"> &#160;Providers</text>
<polygon fill="#fb8072" stroke="transparent" points="1395,-10 1395,-30 1415,-30 1415,-10 1395,-10"/>
<text text-anchor="start" x="1418.7258" y="-15.4" font-family="sans-serif" font-size="14.00" fill="#000000"> &#160;Exports</text>
<g id="clust1" class="cluster">
<title>cluster_AppModule</title>
<polygon fill="none" stroke="#000000" stroke-dasharray="1,5" points="8,-70 8,-268 2466,-268 2466,-70 8,-70"/>
</g>
<g id="clust2" class="cluster">
<title>cluster_AppModule_declarations</title>
<polygon fill="none" stroke="#000000" points="1621,-78 1621,-130 2458,-130 2458,-78 1621,-78"/>
</g>
<g id="clust9" class="cluster">
<title>cluster_AppModule_imports</title>
<polygon fill="none" stroke="#000000" points="1469,-78 1469,-130 1613,-130 1613,-78 1469,-78"/>
</g>
<g id="clust11" class="cluster">
<title>cluster_AppModule_bootstrap</title>
<polygon fill="none" stroke="#000000" points="1246,-208 1246,-260 1370,-260 1370,-208 1246,-208"/>
</g>
<g id="clust12" class="cluster">
<title>cluster_AppModule_providers</title>
<polygon fill="none" stroke="#000000" points="16,-78 16,-130 1461,-130 1461,-78 16,-78"/>
</g>
<!-- AppComponent -->
<g id="node1" class="node">
<title>AppComponent</title>
<polygon fill="#ffffb3" stroke="#000000" points="2449.9399,-122 2344.0601,-122 2344.0601,-86 2449.9399,-86 2449.9399,-122"/>
<text text-anchor="middle" x="2397" y="-99.8" font-family="Times,serif" font-size="14.00" fill="#000000">AppComponent</text>
</g>
<!-- AppModule -->
<g id="node7" class="node">
<title>AppModule</title>
<polygon fill="#8dd3c7" stroke="#000000" points="1349.6571,-187 1346.6571,-191 1325.6571,-191 1322.6571,-187 1266.3429,-187 1266.3429,-151 1349.6571,-151 1349.6571,-187"/>
<text text-anchor="middle" x="1308" y="-164.8" font-family="Times,serif" font-size="14.00" fill="#000000">AppModule</text>
</g>
<!-- AppComponent&#45;&gt;AppModule -->
<g id="edge1" class="edge">
<title>AppComponent&#45;&gt;AppModule</title>
<path fill="none" stroke="#000000" d="M2397,-122.3228C2397,-145.6602 2397,-183 2397,-183 2397,-183 1359.691,-183 1359.691,-183"/>
<polygon fill="#000000" stroke="#000000" points="1359.691,-179.5001 1349.691,-183 1359.6909,-186.5001 1359.691,-179.5001"/>
</g>
<!-- DefaultLayoutComponent -->
<g id="node2" class="node">
<title>DefaultLayoutComponent</title>
<polygon fill="#ffffb3" stroke="#000000" points="2326.4678,-122 2163.5322,-122 2163.5322,-86 2326.4678,-86 2326.4678,-122"/>
<text text-anchor="middle" x="2245" y="-99.8" font-family="Times,serif" font-size="14.00" fill="#000000">DefaultLayoutComponent</text>
</g>
<!-- DefaultLayoutComponent&#45;&gt;AppModule -->
<g id="edge2" class="edge">
<title>DefaultLayoutComponent&#45;&gt;AppModule</title>
<path fill="none" stroke="#000000" d="M2245,-122.2921C2245,-144.2057 2245,-178 2245,-178 2245,-178 1359.7755,-178 1359.7755,-178"/>
<polygon fill="#000000" stroke="#000000" points="1359.7755,-174.5001 1349.7755,-178 1359.7755,-181.5001 1359.7755,-174.5001"/>
</g>
<!-- LoginComponent -->
<g id="node3" class="node">
<title>LoginComponent</title>
<polygon fill="#ffffb3" stroke="#000000" points="2145.2758,-122 2030.7242,-122 2030.7242,-86 2145.2758,-86 2145.2758,-122"/>
<text text-anchor="middle" x="2088" y="-99.8" font-family="Times,serif" font-size="14.00" fill="#000000">LoginComponent</text>
</g>
<!-- LoginComponent&#45;&gt;AppModule -->
<g id="edge3" class="edge">
<title>LoginComponent&#45;&gt;AppModule</title>
<path fill="none" stroke="#000000" d="M2088,-122.0267C2088,-142.7672 2088,-174 2088,-174 2088,-174 1359.6604,-174 1359.6604,-174"/>
<polygon fill="#000000" stroke="#000000" points="1359.6605,-170.5001 1349.6604,-174 1359.6604,-177.5001 1359.6605,-170.5001"/>
</g>
<!-- P404Component -->
<g id="node4" class="node">
<title>P404Component</title>
<polygon fill="#ffffb3" stroke="#000000" points="2013.1151,-122 1902.8849,-122 1902.8849,-86 2013.1151,-86 2013.1151,-122"/>
<text text-anchor="middle" x="1958" y="-99.8" font-family="Times,serif" font-size="14.00" fill="#000000">P404Component</text>
</g>
<!-- P404Component&#45;&gt;AppModule -->
<g id="edge4" class="edge">
<title>P404Component&#45;&gt;AppModule</title>
<path fill="none" stroke="#000000" d="M1958,-122.1061C1958,-141.3391 1958,-169 1958,-169 1958,-169 1360.1475,-169 1360.1475,-169"/>
<polygon fill="#000000" stroke="#000000" points="1360.1475,-165.5001 1350.1475,-169 1360.1475,-172.5001 1360.1475,-165.5001"/>
</g>
<!-- P500Component -->
<g id="node5" class="node">
<title>P500Component</title>
<polygon fill="#ffffb3" stroke="#000000" points="1885.1151,-122 1774.8849,-122 1774.8849,-86 1885.1151,-86 1885.1151,-122"/>
<text text-anchor="middle" x="1830" y="-99.8" font-family="Times,serif" font-size="14.00" fill="#000000">P500Component</text>
</g>
<!-- P500Component&#45;&gt;AppModule -->
<g id="edge5" class="edge">
<title>P500Component&#45;&gt;AppModule</title>
<path fill="none" stroke="#000000" d="M1830,-122.302C1830,-140.2699 1830,-165 1830,-165 1830,-165 1359.8351,-165 1359.8351,-165"/>
<polygon fill="#000000" stroke="#000000" points="1359.8351,-161.5001 1349.8351,-165 1359.835,-168.5001 1359.8351,-161.5001"/>
</g>
<!-- RegisterComponent -->
<g id="node6" class="node">
<title>RegisterComponent</title>
<polygon fill="#ffffb3" stroke="#000000" points="1756.9846,-122 1629.0154,-122 1629.0154,-86 1756.9846,-86 1756.9846,-122"/>
<text text-anchor="middle" x="1693" y="-99.8" font-family="Times,serif" font-size="14.00" fill="#000000">RegisterComponent</text>
</g>
<!-- RegisterComponent&#45;&gt;AppModule -->
<g id="edge6" class="edge">
<title>RegisterComponent&#45;&gt;AppModule</title>
<path fill="none" stroke="#000000" d="M1693,-122.027C1693,-138.3976 1693,-160 1693,-160 1693,-160 1359.9346,-160 1359.9346,-160"/>
<polygon fill="#000000" stroke="#000000" points="1359.9347,-156.5001 1349.9346,-160 1359.9346,-163.5001 1359.9347,-156.5001"/>
</g>
<!-- AppComponent  -->
<g id="node9" class="node">
<title>AppComponent </title>
<polygon fill="#80b1d3" stroke="#000000" points="1362.439,-252 1253.561,-252 1253.561,-216 1362.439,-216 1362.439,-252"/>
<text text-anchor="middle" x="1308" y="-229.8" font-family="Times,serif" font-size="14.00" fill="#000000">AppComponent </text>
</g>
<!-- AppModule&#45;&gt;AppComponent  -->
<g id="edge8" class="edge">
<title>AppModule&#45;&gt;AppComponent </title>
<path fill="none" stroke="#000000" stroke-dasharray="1,5" d="M1308,-187.1061C1308,-187.1061 1308,-205.991 1308,-205.991"/>
<polygon fill="#000000" stroke="#000000" points="1304.5001,-205.9909 1308,-215.991 1311.5001,-205.991 1304.5001,-205.9909"/>
</g>
<!-- AppRoutingModule -->
<g id="node8" class="node">
<title>AppRoutingModule</title>
<polygon fill="#8dd3c7" stroke="#000000" points="1605.2744,-122 1602.2744,-126 1581.2744,-126 1578.2744,-122 1476.7256,-122 1476.7256,-86 1605.2744,-86 1605.2744,-122"/>
<text text-anchor="middle" x="1541" y="-99.8" font-family="Times,serif" font-size="14.00" fill="#000000">AppRoutingModule</text>
</g>
<!-- AppRoutingModule&#45;&gt;AppModule -->
<g id="edge7" class="edge">
<title>AppRoutingModule&#45;&gt;AppModule</title>
<path fill="none" stroke="#000000" d="M1541,-122.1871C1541,-137.1824 1541,-156 1541,-156 1541,-156 1359.9248,-156 1359.9248,-156"/>
<polygon fill="#000000" stroke="#000000" points="1359.9249,-152.5001 1349.9248,-156 1359.9248,-159.5001 1359.9249,-152.5001"/>
</g>
<!-- AlertifyService -->
<g id="node10" class="node">
<title>AlertifyService</title>
<ellipse fill="#fdb462" stroke="#000000" cx="1382" cy="-104" rx="70.6181" ry="18"/>
<text text-anchor="middle" x="1382" y="-99.8" font-family="Times,serif" font-size="14.00" fill="#000000">AlertifyService</text>
</g>
<!-- AlertifyService&#45;&gt;AppModule -->
<g id="edge9" class="edge">
<title>AlertifyService&#45;&gt;AppModule</title>
<path fill="none" stroke="#000000" d="M1330.6346,-116.5327C1330.6346,-116.5327 1330.6346,-140.8507 1330.6346,-140.8507"/>
<polygon fill="#000000" stroke="#000000" points="1327.1347,-140.8506 1330.6346,-150.8507 1334.1347,-140.8507 1327.1347,-140.8506"/>
</g>
<!-- AuthService -->
<g id="node11" class="node">
<title>AuthService</title>
<ellipse fill="#fdb462" stroke="#000000" cx="1234" cy="-104" rx="59.1083" ry="18"/>
<text text-anchor="middle" x="1234" y="-99.8" font-family="Times,serif" font-size="14.00" fill="#000000">AuthService</text>
</g>
<!-- AuthService&#45;&gt;AppModule -->
<g id="edge10" class="edge">
<title>AuthService&#45;&gt;AppModule</title>
<path fill="none" stroke="#000000" d="M1279.7378,-115.6207C1279.7378,-115.6207 1279.7378,-140.8534 1279.7378,-140.8534"/>
<polygon fill="#000000" stroke="#000000" points="1276.2379,-140.8533 1279.7378,-150.8534 1283.2379,-140.8534 1276.2379,-140.8533"/>
</g>
<!-- CustomerService -->
<g id="node12" class="node">
<title>CustomerService</title>
<ellipse fill="#fdb462" stroke="#000000" cx="1079" cy="-104" rx="77.5839" ry="18"/>
<text text-anchor="middle" x="1079" y="-99.8" font-family="Times,serif" font-size="14.00" fill="#000000">CustomerService</text>
</g>
<!-- CustomerService&#45;&gt;AppModule -->
<g id="edge11" class="edge">
<title>CustomerService&#45;&gt;AppModule</title>
<path fill="none" stroke="#000000" d="M1079,-122.1871C1079,-137.1824 1079,-156 1079,-156 1079,-156 1256.2641,-156 1256.2641,-156"/>
<polygon fill="#000000" stroke="#000000" points="1256.2642,-159.5001 1266.2641,-156 1256.2641,-152.5001 1256.2642,-159.5001"/>
</g>
<!-- EventLogService -->
<g id="node13" class="node">
<title>EventLogService</title>
<ellipse fill="#fdb462" stroke="#000000" cx="905" cy="-104" rx="78.1501" ry="18"/>
<text text-anchor="middle" x="905" y="-99.8" font-family="Times,serif" font-size="14.00" fill="#000000">EventLogService</text>
</g>
<!-- EventLogService&#45;&gt;AppModule -->
<g id="edge12" class="edge">
<title>EventLogService&#45;&gt;AppModule</title>
<path fill="none" stroke="#000000" d="M905,-122.027C905,-138.3976 905,-160 905,-160 905,-160 1256.0124,-160 1256.0124,-160"/>
<polygon fill="#000000" stroke="#000000" points="1256.0124,-163.5001 1266.0124,-160 1256.0124,-156.5001 1256.0124,-163.5001"/>
</g>
<!-- FileUploadService -->
<g id="node14" class="node">
<title>FileUploadService</title>
<ellipse fill="#fdb462" stroke="#000000" cx="725" cy="-104" rx="83.3828" ry="18"/>
<text text-anchor="middle" x="725" y="-99.8" font-family="Times,serif" font-size="14.00" fill="#000000">FileUploadService</text>
</g>
<!-- FileUploadService&#45;&gt;AppModule -->
<g id="edge13" class="edge">
<title>FileUploadService&#45;&gt;AppModule</title>
<path fill="none" stroke="#000000" d="M725,-122.302C725,-140.2699 725,-165 725,-165 725,-165 1256.0721,-165 1256.0721,-165"/>
<polygon fill="#000000" stroke="#000000" points="1256.0721,-168.5001 1266.0721,-165 1256.072,-161.5001 1256.0721,-168.5001"/>
</g>
<!-- ItemService -->
<g id="node15" class="node">
<title>ItemService</title>
<ellipse fill="#fdb462" stroke="#000000" cx="566" cy="-104" rx="57.879" ry="18"/>
<text text-anchor="middle" x="566" y="-99.8" font-family="Times,serif" font-size="14.00" fill="#000000">ItemService</text>
</g>
<!-- ItemService&#45;&gt;AppModule -->
<g id="edge14" class="edge">
<title>ItemService&#45;&gt;AppModule</title>
<path fill="none" stroke="#000000" d="M566,-122.1061C566,-141.3391 566,-169 566,-169 566,-169 1256.2493,-169 1256.2493,-169"/>
<polygon fill="#000000" stroke="#000000" points="1256.2493,-172.5001 1266.2493,-169 1256.2492,-165.5001 1256.2493,-172.5001"/>
</g>
<!-- ItemTemplateService -->
<g id="node16" class="node">
<title>ItemTemplateService</title>
<ellipse fill="#fdb462" stroke="#000000" cx="396" cy="-104" rx="94.3137" ry="18"/>
<text text-anchor="middle" x="396" y="-99.8" font-family="Times,serif" font-size="14.00" fill="#000000">ItemTemplateService</text>
</g>
<!-- ItemTemplateService&#45;&gt;AppModule -->
<g id="edge15" class="edge">
<title>ItemTemplateService&#45;&gt;AppModule</title>
<path fill="none" stroke="#000000" d="M396,-122.0267C396,-142.7672 396,-174 396,-174 396,-174 1256.1429,-174 1256.1429,-174"/>
<polygon fill="#000000" stroke="#000000" points="1256.1429,-177.5001 1266.1429,-174 1256.1429,-170.5001 1256.1429,-177.5001"/>
</g>
<!-- OrderService -->
<g id="node17" class="node">
<title>OrderService</title>
<ellipse fill="#fdb462" stroke="#000000" cx="221" cy="-104" rx="62.516" ry="18"/>
<text text-anchor="middle" x="221" y="-99.8" font-family="Times,serif" font-size="14.00" fill="#000000">OrderService</text>
</g>
<!-- OrderService&#45;&gt;AppModule -->
<g id="edge16" class="edge">
<title>OrderService&#45;&gt;AppModule</title>
<path fill="none" stroke="#000000" d="M221,-122.2921C221,-144.2057 221,-178 221,-178 221,-178 1256.0544,-178 1256.0544,-178"/>
<polygon fill="#000000" stroke="#000000" points="1256.0544,-181.5001 1266.0544,-178 1256.0543,-174.5001 1256.0544,-181.5001"/>
</g>
<!-- UserService -->
<g id="node18" class="node">
<title>UserService</title>
<ellipse fill="#fdb462" stroke="#000000" cx="82" cy="-104" rx="58.4415" ry="18"/>
<text text-anchor="middle" x="82" y="-99.8" font-family="Times,serif" font-size="14.00" fill="#000000">UserService</text>
</g>
<!-- UserService&#45;&gt;AppModule -->
<g id="edge17" class="edge">
<title>UserService&#45;&gt;AppModule</title>
<path fill="none" stroke="#000000" d="M82,-122.3228C82,-145.6602 82,-183 82,-183 82,-183 1256.153,-183 1256.153,-183"/>
<polygon fill="#000000" stroke="#000000" points="1256.153,-186.5001 1266.153,-183 1256.1529,-179.5001 1256.153,-186.5001"/>
</g>
</g>
</svg>
