<?xml version="1.0" encoding="UTF-8" standalone="no"?>
<!DOCTYPE svg PUBLIC "-//W3C//DTD SVG 1.1//EN"
 "http://www.w3.org/Graphics/SVG/1.1/DTD/svg11.dtd">
<!-- Generated by graphviz version 2.40.1 (20161225.0304)
 -->
<!-- Title: dependencies Pages: 1 -->
<svg width="790pt" height="211pt"
 viewBox="0.00 0.00 790.00 211.00" xmlns="http://www.w3.org/2000/svg" xmlns:xlink="http://www.w3.org/1999/xlink">
<g id="graph0" class="graph" transform="scale(1 1) rotate(0) translate(4 207)">
<title>dependencies</title>
<polygon fill="#ffffff" stroke="transparent" points="-4,4 -4,-207 786,-207 786,4 -4,4"/>
<text text-anchor="start" x="370.0091" y="-42.4" font-family="sans-serif" font-weight="bold" font-size="14.00" fill="#000000">Legend</text>
<polygon fill="#ffffb3" stroke="transparent" points="157,-10 157,-30 177,-30 177,-10 157,-10"/>
<text text-anchor="start" x="180.629" y="-15.4" font-family="sans-serif" font-size="14.00" fill="#000000"> &#160;Declarations</text>
<polygon fill="#8dd3c7" stroke="transparent" points="270,-10 270,-30 290,-30 290,-10 270,-10"/>
<text text-anchor="start" x="293.7251" y="-15.4" font-family="sans-serif" font-size="14.00" fill="#000000"> &#160;Module</text>
<polygon fill="#80b1d3" stroke="transparent" points="356,-10 356,-30 376,-30 376,-10 356,-10"/>
<text text-anchor="start" x="379.7812" y="-15.4" font-family="sans-serif" font-size="14.00" fill="#000000"> &#160;Bootstrap</text>
<polygon fill="#fdb462" stroke="transparent" points="453,-10 453,-30 473,-30 473,-10 453,-10"/>
<text text-anchor="start" x="476.6732" y="-15.4" font-family="sans-serif" font-size="14.00" fill="#000000"> &#160;Providers</text>
<polygon fill="#fb8072" stroke="transparent" points="549,-10 549,-30 569,-30 569,-10 549,-10"/>
<text text-anchor="start" x="572.7258" y="-15.4" font-family="sans-serif" font-size="14.00" fill="#000000"> &#160;Exports</text>
<g id="clust1" class="cluster">
<title>cluster_CustomersModule</title>
<polygon fill="none" stroke="#000000" stroke-dasharray="1,5" points="8,-70 8,-195 774,-195 774,-70 8,-70"/>
</g>
<g id="clust2" class="cluster">
<title>cluster_CustomersModule_declarations</title>
<polygon fill="none" stroke="#000000" points="204,-78 204,-130 766,-130 766,-78 204,-78"/>
</g>
<g id="clust6" class="cluster">
<title>cluster_CustomersModule_imports</title>
<polygon fill="none" stroke="#000000" points="16,-78 16,-130 196,-130 196,-78 16,-78"/>
</g>
<!-- DetailsCustomerComponent -->
<g id="node1" class="node">
<title>DetailsCustomerComponent</title>
<polygon fill="#ffffb3" stroke="#000000" points="757.9227,-122 582.0773,-122 582.0773,-86 757.9227,-86 757.9227,-122"/>
<text text-anchor="middle" x="670" y="-99.8" font-family="Times,serif" font-size="14.00" fill="#000000">DetailsCustomerComponent</text>
</g>
<!-- CustomersModule -->
<g id="node4" class="node">
<title>CustomersModule</title>
<polygon fill="#8dd3c7" stroke="#000000" points="449.9328,-187 446.9328,-191 425.9328,-191 422.9328,-187 330.0672,-187 330.0672,-151 449.9328,-151 449.9328,-187"/>
<text text-anchor="middle" x="390" y="-164.8" font-family="Times,serif" font-size="14.00" fill="#000000">CustomersModule</text>
</g>
<!-- DetailsCustomerComponent&#45;&gt;CustomersModule -->
<g id="edge1" class="edge">
<title>DetailsCustomerComponent&#45;&gt;CustomersModule</title>
<path fill="none" stroke="#000000" d="M670,-122.1061C670,-141.3391 670,-169 670,-169 670,-169 459.7236,-169 459.7236,-169"/>
<polygon fill="#000000" stroke="#000000" points="459.7236,-165.5001 449.7236,-169 459.7236,-172.5001 459.7236,-165.5001"/>
</g>
<!-- NewCustomerComponent -->
<g id="node2" class="node">
<title>NewCustomerComponent</title>
<polygon fill="#ffffb3" stroke="#000000" points="564.1979,-122 401.8021,-122 401.8021,-86 564.1979,-86 564.1979,-122"/>
<text text-anchor="middle" x="483" y="-99.8" font-family="Times,serif" font-size="14.00" fill="#000000">NewCustomerComponent</text>
</g>
<!-- NewCustomerComponent&#45;&gt;CustomersModule -->
<g id="edge2" class="edge">
<title>NewCustomerComponent&#45;&gt;CustomersModule</title>
<path fill="none" stroke="#000000" d="M425.8086,-122.1061C425.8086,-122.1061 425.8086,-140.991 425.8086,-140.991"/>
<polygon fill="#000000" stroke="#000000" points="422.3086,-140.9909 425.8086,-150.991 429.3086,-140.991 422.3086,-140.9909"/>
</g>
<!-- ViewCustomersComponent -->
<g id="node3" class="node">
<title>ViewCustomersComponent</title>
<polygon fill="#ffffb3" stroke="#000000" points="383.5336,-122 212.4664,-122 212.4664,-86 383.5336,-86 383.5336,-122"/>
<text text-anchor="middle" x="298" y="-99.8" font-family="Times,serif" font-size="14.00" fill="#000000">ViewCustomersComponent</text>
</g>
<!-- ViewCustomersComponent&#45;&gt;CustomersModule -->
<g id="edge3" class="edge">
<title>ViewCustomersComponent&#45;&gt;CustomersModule</title>
<path fill="none" stroke="#000000" d="M357.0253,-122.1061C357.0253,-122.1061 357.0253,-140.991 357.0253,-140.991"/>
<polygon fill="#000000" stroke="#000000" points="353.5253,-140.9909 357.0253,-150.991 360.5253,-140.991 353.5253,-140.9909"/>
</g>
<!-- CustomersRoutingModule -->
<g id="node5" class="node">
<title>CustomersRoutingModule</title>
<polygon fill="#8dd3c7" stroke="#000000" points="188.0504,-122 185.0504,-126 164.0504,-126 161.0504,-122 23.9496,-122 23.9496,-86 188.0504,-86 188.0504,-122"/>
<text text-anchor="middle" x="106" y="-99.8" font-family="Times,serif" font-size="14.00" fill="#000000">CustomersRoutingModule</text>
</g>
<!-- CustomersRoutingModule&#45;&gt;CustomersModule -->
<g id="edge4" class="edge">
<title>CustomersRoutingModule&#45;&gt;CustomersModule</title>
<path fill="none" stroke="#000000" d="M106,-122.1061C106,-141.3391 106,-169 106,-169 106,-169 320.1179,-169 320.1179,-169"/>
<polygon fill="#000000" stroke="#000000" points="320.118,-172.5001 330.1179,-169 320.1179,-165.5001 320.118,-172.5001"/>
</g>
</g>
</svg>
