<?xml version="1.0" encoding="UTF-8" standalone="no"?>
<!DOCTYPE svg PUBLIC "-//W3C//DTD SVG 1.1//EN"
 "http://www.w3.org/Graphics/SVG/1.1/DTD/svg11.dtd">
<!-- Generated by graphviz version 2.40.1 (20161225.0304)
 -->
<!-- Title: dependencies Pages: 1 -->
<svg width="730pt" height="211pt"
 viewBox="0.00 0.00 730.00 211.00" xmlns="http://www.w3.org/2000/svg" xmlns:xlink="http://www.w3.org/1999/xlink">
<g id="graph0" class="graph" transform="scale(1 1) rotate(0) translate(4 207)">
<title>dependencies</title>
<polygon fill="#ffffff" stroke="transparent" points="-4,4 -4,-207 726,-207 726,4 -4,4"/>
<text text-anchor="start" x="340.0091" y="-42.4" font-family="sans-serif" font-weight="bold" font-size="14.00" fill="#000000">Legend</text>
<polygon fill="#ffffb3" stroke="transparent" points="127,-10 127,-30 147,-30 147,-10 127,-10"/>
<text text-anchor="start" x="150.629" y="-15.4" font-family="sans-serif" font-size="14.00" fill="#000000"> &#160;Declarations</text>
<polygon fill="#8dd3c7" stroke="transparent" points="240,-10 240,-30 260,-30 260,-10 240,-10"/>
<text text-anchor="start" x="263.7251" y="-15.4" font-family="sans-serif" font-size="14.00" fill="#000000"> &#160;Module</text>
<polygon fill="#80b1d3" stroke="transparent" points="326,-10 326,-30 346,-30 346,-10 326,-10"/>
<text text-anchor="start" x="349.7812" y="-15.4" font-family="sans-serif" font-size="14.00" fill="#000000"> &#160;Bootstrap</text>
<polygon fill="#fdb462" stroke="transparent" points="423,-10 423,-30 443,-30 443,-10 423,-10"/>
<text text-anchor="start" x="446.6732" y="-15.4" font-family="sans-serif" font-size="14.00" fill="#000000"> &#160;Providers</text>
<polygon fill="#fb8072" stroke="transparent" points="519,-10 519,-30 539,-30 539,-10 519,-10"/>
<text text-anchor="start" x="542.7258" y="-15.4" font-family="sans-serif" font-size="14.00" fill="#000000"> &#160;Exports</text>
<g id="clust1" class="cluster">
<title>cluster_ProjectsModule</title>
<polygon fill="none" stroke="#000000" stroke-dasharray="1,5" points="8,-70 8,-195 714,-195 714,-70 8,-70"/>
</g>
<g id="clust2" class="cluster">
<title>cluster_ProjectsModule_declarations</title>
<polygon fill="none" stroke="#000000" points="190,-78 190,-130 706,-130 706,-78 190,-78"/>
</g>
<g id="clust6" class="cluster">
<title>cluster_ProjectsModule_imports</title>
<polygon fill="none" stroke="#000000" points="16,-78 16,-130 182,-130 182,-78 16,-78"/>
</g>
<!-- DetailsProjectComponent -->
<g id="node1" class="node">
<title>DetailsProjectComponent</title>
<polygon fill="#ffffb3" stroke="#000000" points="698.1386,-122 537.8614,-122 537.8614,-86 698.1386,-86 698.1386,-122"/>
<text text-anchor="middle" x="618" y="-99.8" font-family="Times,serif" font-size="14.00" fill="#000000">DetailsProjectComponent</text>
</g>
<!-- ProjectsModule -->
<g id="node4" class="node">
<title>ProjectsModule</title>
<polygon fill="#8dd3c7" stroke="#000000" points="413.1486,-187 410.1486,-191 389.1486,-191 386.1486,-187 308.8514,-187 308.8514,-151 413.1486,-151 413.1486,-187"/>
<text text-anchor="middle" x="361" y="-164.8" font-family="Times,serif" font-size="14.00" fill="#000000">ProjectsModule</text>
</g>
<!-- DetailsProjectComponent&#45;&gt;ProjectsModule -->
<g id="edge1" class="edge">
<title>DetailsProjectComponent&#45;&gt;ProjectsModule</title>
<path fill="none" stroke="#000000" d="M618,-122.1061C618,-141.3391 618,-169 618,-169 618,-169 423.3176,-169 423.3176,-169"/>
<polygon fill="#000000" stroke="#000000" points="423.3176,-165.5001 413.3176,-169 423.3175,-172.5001 423.3176,-165.5001"/>
</g>
<!-- NewProjectComponent -->
<g id="node2" class="node">
<title>NewProjectComponent</title>
<polygon fill="#ffffb3" stroke="#000000" points="519.9144,-122 372.0856,-122 372.0856,-86 519.9144,-86 519.9144,-122"/>
<text text-anchor="middle" x="446" y="-99.8" font-family="Times,serif" font-size="14.00" fill="#000000">NewProjectComponent</text>
</g>
<!-- NewProjectComponent&#45;&gt;ProjectsModule -->
<g id="edge2" class="edge">
<title>NewProjectComponent&#45;&gt;ProjectsModule</title>
<path fill="none" stroke="#000000" d="M392.8085,-122.1061C392.8085,-122.1061 392.8085,-140.991 392.8085,-140.991"/>
<polygon fill="#000000" stroke="#000000" points="389.3086,-140.9909 392.8085,-150.991 396.3086,-140.991 389.3086,-140.9909"/>
</g>
<!-- ViewProjectsComponent -->
<g id="node3" class="node">
<title>ViewProjectsComponent</title>
<polygon fill="#ffffb3" stroke="#000000" points="354.2492,-122 197.7508,-122 197.7508,-86 354.2492,-86 354.2492,-122"/>
<text text-anchor="middle" x="276" y="-99.8" font-family="Times,serif" font-size="14.00" fill="#000000">ViewProjectsComponent</text>
</g>
<!-- ViewProjectsComponent&#45;&gt;ProjectsModule -->
<g id="edge3" class="edge">
<title>ViewProjectsComponent&#45;&gt;ProjectsModule</title>
<path fill="none" stroke="#000000" d="M331.5253,-122.1061C331.5253,-122.1061 331.5253,-140.991 331.5253,-140.991"/>
<polygon fill="#000000" stroke="#000000" points="328.0253,-140.9909 331.5253,-150.991 335.0253,-140.991 328.0253,-140.9909"/>
</g>
<!-- ProjectsRoutingModule -->
<g id="node5" class="node">
<title>ProjectsRoutingModule</title>
<polygon fill="#8dd3c7" stroke="#000000" points="173.766,-122 170.766,-126 149.766,-126 146.766,-122 24.234,-122 24.234,-86 173.766,-86 173.766,-122"/>
<text text-anchor="middle" x="99" y="-99.8" font-family="Times,serif" font-size="14.00" fill="#000000">ProjectsRoutingModule</text>
</g>
<!-- ProjectsRoutingModule&#45;&gt;ProjectsModule -->
<g id="edge4" class="edge">
<title>ProjectsRoutingModule&#45;&gt;ProjectsModule</title>
<path fill="none" stroke="#000000" d="M99,-122.1061C99,-141.3391 99,-169 99,-169 99,-169 298.6101,-169 298.6101,-169"/>
<polygon fill="#000000" stroke="#000000" points="298.6101,-172.5001 308.6101,-169 298.6101,-165.5001 298.6101,-172.5001"/>
</g>
</g>
</svg>
